<mxfile host="65bd71144e">
    <diagram id="prtHgNgQTEPvFCAcTncT" name="Page-1">
        <mxGraphModel dx="1030" dy="500" grid="1" gridSize="10" guides="1" tooltips="1" connect="1" arrows="1" fold="1" page="1" pageScale="1" pageWidth="827" pageHeight="1169" math="0" shadow="0">
            <root>
                <mxCell id="0"/>
                <mxCell id="1" parent="0"/>
                <mxCell id="5XVwS2wBV6jyzfLc82zG-90" value="" style="endArrow=classic;html=1;rounded=0;strokeWidth=3;" parent="1" edge="1">
                    <mxGeometry width="50" height="50" relative="1" as="geometry">
                        <mxPoint x="1280" y="598.38" as="sourcePoint"/>
                        <mxPoint x="980" y="600" as="targetPoint"/>
                    </mxGeometry>
                </mxCell>
                <mxCell id="5XVwS2wBV6jyzfLc82zG-89" value="" style="endArrow=classic;html=1;rounded=0;strokeWidth=3;" parent="1" edge="1">
                    <mxGeometry width="50" height="50" relative="1" as="geometry">
                        <mxPoint x="980" y="539" as="sourcePoint"/>
                        <mxPoint x="1280" y="539" as="targetPoint"/>
                    </mxGeometry>
                </mxCell>
                <mxCell id="5XVwS2wBV6jyzfLc82zG-1" value="&lt;font&gt;&lt;font style=&quot;color: light-dark(rgb(0, 0, 0), rgb(255, 255, 255));&quot;&gt;Flutter APP&lt;/font&gt;&lt;br&gt;&lt;/font&gt;" style="rounded=1;whiteSpace=wrap;html=1;fillColor=light-dark(#1ba1e2, #54c5f8);strokeColor=#006EAF;shadow=0;fontColor=#ffffff;fontSize=30;fontStyle=1" parent="1" vertex="1">
                    <mxGeometry x="314" y="145" width="200" height="80" as="geometry"/>
                </mxCell>
                <mxCell id="5XVwS2wBV6jyzfLc82zG-2" value="" style="whiteSpace=wrap;html=1;rounded=1;fillColor=light-dark(#1ba1e2, #54c5f8);strokeColor=#006EAF;fontColor=#ffffff;" parent="1" vertex="1">
                    <mxGeometry x="114" y="305" width="600" height="560" as="geometry"/>
                </mxCell>
                <mxCell id="5XVwS2wBV6jyzfLc82zG-8" value="&lt;div style=&quot;font-family: &amp;quot;Droid Sans Mono&amp;quot;, &amp;quot;monospace&amp;quot;, monospace; font-size: 14px; line-height: 19px; white-space: pre;&quot;&gt;&lt;div style=&quot;&quot;&gt;&lt;span style=&quot;&quot;&gt;&lt;font style=&quot;color: light-dark(rgb(0, 0, 0), rgb(255, 255, 255));&quot;&gt;employee&lt;/font&gt;&lt;/span&gt;&lt;/div&gt;&lt;/div&gt;" style="rounded=1;whiteSpace=wrap;html=1;strokeColor=#9673a6;labelBackgroundColor=none;labelBorderColor=none;fillColor=#e1d5e7;fontStyle=1" parent="1" vertex="1">
                    <mxGeometry x="154" y="518" width="120" height="60" as="geometry"/>
                </mxCell>
                <mxCell id="5XVwS2wBV6jyzfLc82zG-9" value="&lt;div style=&quot;font-family: &amp;quot;Droid Sans Mono&amp;quot;, &amp;quot;monospace&amp;quot;, monospace; font-size: 14px; line-height: 19px; white-space: pre;&quot;&gt;&lt;div style=&quot;&quot;&gt;&lt;span&gt;&lt;font style=&quot;color: light-dark(rgb(0, 0, 0), rgb(255, 255, 255));&quot;&gt;time off&lt;/font&gt;&lt;/span&gt;&lt;/div&gt;&lt;/div&gt;" style="rounded=1;whiteSpace=wrap;html=1;fillColor=#e1d5e7;strokeColor=#9673a6;fontStyle=1" parent="1" vertex="1">
                    <mxGeometry x="554" y="608" width="120" height="60" as="geometry"/>
                </mxCell>
                <mxCell id="5XVwS2wBV6jyzfLc82zG-11" value="&lt;div style=&quot;font-family: &amp;quot;Droid Sans Mono&amp;quot;, &amp;quot;monospace&amp;quot;, monospace; font-size: 14px; line-height: 19px; white-space: pre;&quot;&gt;&lt;div style=&quot;&quot;&gt;&lt;span&gt;&lt;font style=&quot;color: light-dark(rgb(192, 192, 192), rgb(255, 255, 255));&quot;&gt;attendance&lt;/font&gt;&lt;/span&gt;&lt;br&gt;&lt;/div&gt;&lt;/div&gt;" style="rounded=1;whiteSpace=wrap;html=1;fillColor=#e1d5e7;strokeColor=#9673a6;fontStyle=1" parent="1" vertex="1">
                    <mxGeometry x="154" y="608" width="120" height="60" as="geometry"/>
                </mxCell>
                <mxCell id="5XVwS2wBV6jyzfLc82zG-15" value="&lt;div style=&quot;font-family: &amp;quot;Droid Sans Mono&amp;quot;, &amp;quot;monospace&amp;quot;, monospace; font-size: 14px; line-height: 19px; white-space: pre;&quot;&gt;&lt;div style=&quot;line-height: 19px;&quot;&gt;&lt;div style=&quot;line-height: 19px;&quot;&gt;&lt;span style=&quot;line-height: 1900%;&quot;&gt;&lt;font style=&quot;color: light-dark(rgb(0, 0, 0), rgb(255, 255, 255));&quot;&gt;delegation&lt;/font&gt;&lt;/span&gt;&lt;/div&gt;&lt;/div&gt;&lt;/div&gt;" style="rounded=1;whiteSpace=wrap;html=1;fillColor=#e1d5e7;strokeColor=#9673a6;fontStyle=1" parent="1" vertex="1">
                    <mxGeometry x="354" y="477" width="120" height="60" as="geometry"/>
                </mxCell>
                <mxCell id="5XVwS2wBV6jyzfLc82zG-16" value="&lt;div style=&quot;font-family: &amp;quot;Droid Sans Mono&amp;quot;, &amp;quot;monospace&amp;quot;, monospace; font-size: 14px; line-height: 19px; white-space: pre;&quot;&gt;&lt;div style=&quot;line-height: 19px;&quot;&gt;&lt;div style=&quot;line-height: 19px;&quot;&gt;&lt;div style=&quot;line-height: 19px;&quot;&gt;&lt;span&gt;&lt;font style=&quot;color: light-dark(rgb(0, 0, 0), rgb(255, 255, 255));&quot;&gt;salary certificate&lt;/font&gt;&lt;/span&gt;&lt;/div&gt;&lt;/div&gt;&lt;/div&gt;&lt;/div&gt;" style="rounded=1;whiteSpace=wrap;html=1;fillColor=#e1d5e7;strokeColor=#9673a6;fontStyle=1" parent="1" vertex="1">
                    <mxGeometry x="320.5" y="390" width="200" height="60" as="geometry"/>
                </mxCell>
                <mxCell id="5XVwS2wBV6jyzfLc82zG-17" value="&lt;div style=&quot;font-family: &amp;quot;Droid Sans Mono&amp;quot;, &amp;quot;monospace&amp;quot;, monospace; font-size: 14px; line-height: 19px; white-space: pre;&quot;&gt;&lt;div style=&quot;line-height: 19px;&quot;&gt;&lt;div style=&quot;line-height: 19px;&quot;&gt;&lt;div style=&quot;line-height: 19px;&quot;&gt;&lt;div style=&quot;line-height: 19px;&quot;&gt;&lt;span&gt;&lt;font style=&quot;color: light-dark(rgb(0, 0, 0), rgb(255, 255, 255));&quot;&gt;contract&lt;/font&gt;&lt;/span&gt;&lt;/div&gt;&lt;/div&gt;&lt;/div&gt;&lt;/div&gt;&lt;/div&gt;" style="rounded=1;whiteSpace=wrap;html=1;fillColor=#e1d5e7;strokeColor=#9673a6;fontStyle=1" parent="1" vertex="1">
                    <mxGeometry x="554" y="518" width="120" height="60" as="geometry"/>
                </mxCell>
                <mxCell id="5XVwS2wBV6jyzfLc82zG-18" value="&lt;div style=&quot;font-family: &amp;quot;Droid Sans Mono&amp;quot;, &amp;quot;monospace&amp;quot;, monospace; font-size: 14px; line-height: 19px; white-space: pre;&quot;&gt;&lt;div style=&quot;&quot;&gt;&lt;span&gt;&lt;font style=&quot;color: light-dark(rgb(0, 0, 0), rgb(255, 255, 255));&quot;&gt;payslip&lt;/font&gt;&lt;/span&gt;&lt;/div&gt;&lt;/div&gt;" style="rounded=1;whiteSpace=wrap;html=1;fillColor=#e1d5e7;strokeColor=#9673a6;fontStyle=1" parent="1" vertex="1">
                    <mxGeometry x="354" y="690" width="120" height="60" as="geometry"/>
                </mxCell>
                <mxCell id="5XVwS2wBV6jyzfLc82zG-33" value="" style="endArrow=classic;startArrow=classic;html=1;rounded=0;entryX=0;entryY=0.25;entryDx=0;entryDy=0;exitX=1;exitY=0.5;exitDx=0;exitDy=0;" parent="1" source="5XVwS2wBV6jyzfLc82zG-8" target="5XVwS2wBV6jyzfLc82zG-15" edge="1">
                    <mxGeometry width="50" height="50" relative="1" as="geometry">
                        <mxPoint x="304" y="505" as="sourcePoint"/>
                        <mxPoint x="354" y="455" as="targetPoint"/>
                    </mxGeometry>
                </mxCell>
                <mxCell id="5XVwS2wBV6jyzfLc82zG-34" value="" style="endArrow=classic;startArrow=classic;html=1;rounded=0;entryX=0;entryY=0.5;entryDx=0;entryDy=0;exitX=1;exitY=0.25;exitDx=0;exitDy=0;" parent="1" source="5XVwS2wBV6jyzfLc82zG-15" target="5XVwS2wBV6jyzfLc82zG-17" edge="1">
                    <mxGeometry width="50" height="50" relative="1" as="geometry">
                        <mxPoint x="362" y="605" as="sourcePoint"/>
                        <mxPoint x="398" y="565" as="targetPoint"/>
                    </mxGeometry>
                </mxCell>
                <mxCell id="5XVwS2wBV6jyzfLc82zG-35" value="" style="endArrow=classic;startArrow=classic;html=1;rounded=0;exitX=1;exitY=0.5;exitDx=0;exitDy=0;entryX=0;entryY=0.5;entryDx=0;entryDy=0;" parent="1" source="5XVwS2wBV6jyzfLc82zG-11" target="5XVwS2wBV6jyzfLc82zG-15" edge="1">
                    <mxGeometry width="50" height="50" relative="1" as="geometry">
                        <mxPoint x="372" y="615" as="sourcePoint"/>
                        <mxPoint x="408" y="575" as="targetPoint"/>
                    </mxGeometry>
                </mxCell>
                <mxCell id="5XVwS2wBV6jyzfLc82zG-36" value="" style="endArrow=classic;startArrow=classic;html=1;rounded=0;exitX=0;exitY=0.5;exitDx=0;exitDy=0;entryX=1;entryY=0.5;entryDx=0;entryDy=0;" parent="1" source="5XVwS2wBV6jyzfLc82zG-9" target="5XVwS2wBV6jyzfLc82zG-15" edge="1">
                    <mxGeometry width="50" height="50" relative="1" as="geometry">
                        <mxPoint x="382" y="625" as="sourcePoint"/>
                        <mxPoint x="474" y="445" as="targetPoint"/>
                    </mxGeometry>
                </mxCell>
                <mxCell id="5XVwS2wBV6jyzfLc82zG-41" value="" style="endArrow=classic;startArrow=classic;html=1;rounded=0;entryX=0.5;entryY=1;entryDx=0;entryDy=0;exitX=0.5;exitY=0;exitDx=0;exitDy=0;" parent="1" target="5XVwS2wBV6jyzfLc82zG-15" edge="1">
                    <mxGeometry width="50" height="50" relative="1" as="geometry">
                        <mxPoint x="414" y="685" as="sourcePoint"/>
                        <mxPoint x="468" y="635" as="targetPoint"/>
                    </mxGeometry>
                </mxCell>
                <mxCell id="5XVwS2wBV6jyzfLc82zG-42" value="" style="endArrow=classic;startArrow=classic;html=1;rounded=0;entryX=0.5;entryY=0;entryDx=0;entryDy=0;exitX=0.5;exitY=1;exitDx=0;exitDy=0;" parent="1" target="5XVwS2wBV6jyzfLc82zG-15" edge="1">
                    <mxGeometry width="50" height="50" relative="1" as="geometry">
                        <mxPoint x="414" y="453" as="sourcePoint"/>
                        <mxPoint x="70" y="355" as="targetPoint"/>
                    </mxGeometry>
                </mxCell>
                <mxCell id="5XVwS2wBV6jyzfLc82zG-44" style="edgeStyle=orthogonalEdgeStyle;rounded=0;orthogonalLoop=1;jettySize=auto;html=1;exitX=0.5;exitY=1;exitDx=0;exitDy=0;" parent="1" edge="1">
                    <mxGeometry relative="1" as="geometry">
                        <mxPoint x="414" y="745" as="sourcePoint"/>
                        <mxPoint x="414" y="745" as="targetPoint"/>
                    </mxGeometry>
                </mxCell>
                <mxCell id="5XVwS2wBV6jyzfLc82zG-45" value="&lt;font style=&quot;font-size: 18px; color: light-dark(rgb(0, 0, 0), rgb(255, 255, 255));&quot;&gt;Database&lt;/font&gt;" style="rounded=1;whiteSpace=wrap;html=1;fillColor=light-dark(#1ba1e2, #54c5f8);strokeColor=#006EAF;shadow=0;fontColor=#ffffff;" parent="1" vertex="1">
                    <mxGeometry x="314" y="945" width="200" height="80" as="geometry"/>
                </mxCell>
                <mxCell id="5XVwS2wBV6jyzfLc82zG-59" value="" style="endArrow=classic;startArrow=classic;html=1;rounded=0;exitX=1;exitY=0.75;exitDx=0;exitDy=0;entryX=0;entryY=0.75;entryDx=0;entryDy=0;" parent="1" source="5XVwS2wBV6jyzfLc82zG-8" target="5XVwS2wBV6jyzfLc82zG-17" edge="1">
                    <mxGeometry width="50" height="50" relative="1" as="geometry">
                        <mxPoint x="284" y="663" as="sourcePoint"/>
                        <mxPoint x="564" y="663" as="targetPoint"/>
                    </mxGeometry>
                </mxCell>
                <mxCell id="5XVwS2wBV6jyzfLc82zG-61" value="&lt;font style=&quot;color: light-dark(rgb(255, 255, 255), rgb(255, 255, 255));&quot;&gt;Odoo Server&lt;/font&gt;" style="text;html=1;align=center;verticalAlign=middle;whiteSpace=wrap;rounded=0;fontSize=30;fontStyle=1" parent="1" vertex="1">
                    <mxGeometry x="320.5" y="343" width="187" height="30" as="geometry"/>
                </mxCell>
                <mxCell id="5XVwS2wBV6jyzfLc82zG-62" value="&lt;font style=&quot;color: light-dark(rgb(0, 0, 0), rgb(255, 255, 255));&quot;&gt;ORM&lt;/font&gt;" style="rounded=0;whiteSpace=wrap;html=1;fillColor=light-dark(#1ba1e2, #54c5f8);fontColor=#ffffff;strokeColor=#006EAF;fontSize=18;fontStyle=1" parent="1" vertex="1">
                    <mxGeometry x="362.71999999999997" y="845" width="102.56" height="40" as="geometry"/>
                </mxCell>
                <mxCell id="5XVwS2wBV6jyzfLc82zG-65" value="" style="verticalLabelPosition=bottom;aspect=fixed;html=1;shape=mxgraph.salesforce.data;fillColor=#fad7ac;strokeColor=#b46504;" parent="1" vertex="1">
                    <mxGeometry x="260.4" y="955" width="48.6" height="60" as="geometry"/>
                </mxCell>
                <mxCell id="5XVwS2wBV6jyzfLc82zG-69" value="" style="endArrow=classic;html=1;rounded=0;entryX=0.384;entryY=-0.01;entryDx=0;entryDy=0;entryPerimeter=0;exitX=0.271;exitY=1.007;exitDx=0;exitDy=0;exitPerimeter=0;" parent="1" source="5XVwS2wBV6jyzfLc82zG-62" target="5XVwS2wBV6jyzfLc82zG-45" edge="1">
                    <mxGeometry width="50" height="50" relative="1" as="geometry">
                        <mxPoint x="354" y="925" as="sourcePoint"/>
                        <mxPoint x="404" y="875" as="targetPoint"/>
                    </mxGeometry>
                </mxCell>
                <mxCell id="5XVwS2wBV6jyzfLc82zG-70" value="" style="endArrow=classic;html=1;rounded=0;entryX=0.704;entryY=1.006;entryDx=0;entryDy=0;exitX=0.608;exitY=-0.003;exitDx=0;exitDy=0;exitPerimeter=0;entryPerimeter=0;" parent="1" source="5XVwS2wBV6jyzfLc82zG-45" target="5XVwS2wBV6jyzfLc82zG-62" edge="1">
                    <mxGeometry width="50" height="50" relative="1" as="geometry">
                        <mxPoint x="454" y="875" as="sourcePoint"/>
                        <mxPoint x="504" y="825" as="targetPoint"/>
                    </mxGeometry>
                </mxCell>
                <mxCell id="5XVwS2wBV6jyzfLc82zG-71" value="" style="endArrow=classic;html=1;rounded=0;exitX=0.402;exitY=1.005;exitDx=0;exitDy=0;exitPerimeter=0;entryX=0.31;entryY=0;entryDx=0;entryDy=0;entryPerimeter=0;" parent="1" source="5XVwS2wBV6jyzfLc82zG-1" target="5XVwS2wBV6jyzfLc82zG-80" edge="1">
                    <mxGeometry width="50" height="50" relative="1" as="geometry">
                        <mxPoint x="342" y="295" as="sourcePoint"/>
                        <mxPoint x="394" y="255" as="targetPoint"/>
                    </mxGeometry>
                </mxCell>
                <mxCell id="5XVwS2wBV6jyzfLc82zG-72" value="" style="endArrow=classic;html=1;rounded=0;exitX=0.7;exitY=-0.015;exitDx=0;exitDy=0;exitPerimeter=0;" parent="1" source="5XVwS2wBV6jyzfLc82zG-80" edge="1">
                    <mxGeometry width="50" height="50" relative="1" as="geometry">
                        <mxPoint x="434" y="255" as="sourcePoint"/>
                        <mxPoint x="434" y="225" as="targetPoint"/>
                    </mxGeometry>
                </mxCell>
                <mxCell id="5XVwS2wBV6jyzfLc82zG-78" value="" style="shape=image;html=1;verticalAlign=top;verticalLabelPosition=bottom;labelBackgroundColor=#ffffff;imageAspect=0;aspect=fixed;image=data:image/png,iVBORw0KGgoAAAANSUhEUgAAADAAAAAwCAMAAABg3Am1AAAAGXRFWHRTb2Z0d2FyZQBBZG9iZSBJbWFnZVJlYWR5ccllPAAAAIpQTFRFAAAAAVebVMX4Kbb2VMX4AVebKbb2VMX4VMX4Kbb2VMX4VMX4VMX4AVebB1ePVMX4AVebBENyKbb2UcT4VMX4ADxrAUJ1AU2KAU6LAVSVAVSWAVWXAVaZAVaaAVeaAVebAy1LAzFRBUJuBU2ABlOJHom6H43AIZXLIprSIpzVKbb2Mbn2UcT4VMX4UU+PBQAAABV0Uk5TABAQICAwMDCPn5+vv8/Pz+/v7+/vb7KPEwAAAKVJREFUSMft1MkSgjAQRdGIA86igoKirSIOiP//ew6J3WwMnYULU3nL1LnVuwhh9/zwTpt4zjvv/G99d0gbePW+X3kJfd0Bjq8WPE8F138K6Xu3stbLQvmiwOK7fxXosdB5IVrkVaH3csq/CyP/LOYM35xRcB03GJ92B4vLMR2ZFOcs2YJBcTrEqw3wi3y/WK4B2EW+i+IUgF9ME8CxinYAVhR/sgfbkVbaxFzJpwAAAABJRU5ErkJggg==;" parent="1" vertex="1">
                    <mxGeometry x="239" y="150" width="70" height="70" as="geometry"/>
                </mxCell>
                <mxCell id="5XVwS2wBV6jyzfLc82zG-80" value="&lt;font style=&quot;color: light-dark(rgb(0, 0, 0), rgb(255, 255, 255));&quot;&gt;API&lt;/font&gt;" style="rounded=0;whiteSpace=wrap;html=1;fillColor=light-dark(#76608a, #54c5f8);fontColor=#ffffff;strokeColor=#432D57;fontSize=18;fontStyle=1" parent="1" vertex="1">
                    <mxGeometry x="362.72" y="285" width="102.56" height="40" as="geometry"/>
                </mxCell>
                <mxCell id="5XVwS2wBV6jyzfLc82zG-82" value="" style="sketch=0;outlineConnect=0;fontColor=#232F3E;gradientColor=none;fillColor=#232F3D;strokeColor=none;dashed=0;verticalLabelPosition=bottom;verticalAlign=top;align=center;html=1;fontSize=12;fontStyle=0;aspect=fixed;pointerEvents=1;shape=mxgraph.aws4.servers;" parent="1" vertex="1">
                    <mxGeometry x="1400" y="525.5" width="79.5" height="79.5" as="geometry"/>
                </mxCell>
                <mxCell id="5XVwS2wBV6jyzfLc82zG-83" value="" style="sketch=0;verticalLabelPosition=bottom;sketch=0;aspect=fixed;html=1;verticalAlign=top;strokeColor=none;fillColor=#000000;align=center;outlineConnect=0;pointerEvents=1;shape=mxgraph.citrix2.site_database;" parent="1" vertex="1">
                    <mxGeometry x="1540" y="510.5" width="99.43" height="109.5" as="geometry"/>
                </mxCell>
                <mxCell id="5XVwS2wBV6jyzfLc82zG-85" value="" style="ellipse;shape=cloud;whiteSpace=wrap;html=1;" parent="1" vertex="1">
                    <mxGeometry x="1054" y="500.5" width="144.75" height="129.5" as="geometry"/>
                </mxCell>
                <mxCell id="5XVwS2wBV6jyzfLc82zG-87" value="" style="sketch=0;verticalLabelPosition=bottom;sketch=0;aspect=fixed;html=1;verticalAlign=top;strokeColor=none;fillColor=#000000;align=center;outlineConnect=0;pointerEvents=1;shape=mxgraph.citrix2.mobile;" parent="1" vertex="1">
                    <mxGeometry x="891.55" y="522.75" width="38.89" height="77" as="geometry"/>
                </mxCell>
                <mxCell id="5XVwS2wBV6jyzfLc82zG-88" value="" style="rounded=0;whiteSpace=wrap;html=1;labelBackgroundColor=#E6E6E6;textShadow=0;labelBorderColor=none;fillColor=#bac8d3;strokeColor=#23445d;" parent="1" vertex="1">
                    <mxGeometry x="1300" y="479.5" width="40" height="160" as="geometry"/>
                </mxCell>
                <mxCell id="5XVwS2wBV6jyzfLc82zG-92" value="&lt;font style=&quot;font-size: 16px;&quot;&gt;&lt;b&gt;Request&lt;/b&gt;&lt;/font&gt;" style="text;html=1;align=center;verticalAlign=middle;whiteSpace=wrap;rounded=0;" parent="1" vertex="1">
                    <mxGeometry x="995" y="507" width="60" height="30" as="geometry"/>
                </mxCell>
                <mxCell id="5XVwS2wBV6jyzfLc82zG-93" value="&lt;font style=&quot;font-size: 16px;&quot;&gt;&lt;b&gt;Response&lt;/b&gt;&lt;/font&gt;" style="text;html=1;align=center;verticalAlign=middle;whiteSpace=wrap;rounded=0;" parent="1" vertex="1">
                    <mxGeometry x="1207.75" y="569" width="60" height="30" as="geometry"/>
                </mxCell>
                <mxCell id="5XVwS2wBV6jyzfLc82zG-94" value="" style="endArrow=classic;html=1;rounded=0;strokeWidth=3;" parent="1" edge="1">
                    <mxGeometry width="50" height="50" relative="1" as="geometry">
                        <mxPoint x="1345" y="559.13" as="sourcePoint"/>
                        <mxPoint x="1395" y="559.13" as="targetPoint"/>
                    </mxGeometry>
                </mxCell>
                <mxCell id="5XVwS2wBV6jyzfLc82zG-95" value="" style="endArrow=classic;html=1;rounded=0;strokeWidth=3;" parent="1" edge="1">
                    <mxGeometry width="50" height="50" relative="1" as="geometry">
                        <mxPoint x="1395" y="584.7407407407409" as="sourcePoint"/>
                        <mxPoint x="1345" y="584.7407407407409" as="targetPoint"/>
                    </mxGeometry>
                </mxCell>
                <mxCell id="5XVwS2wBV6jyzfLc82zG-96" value="" style="endArrow=classic;html=1;rounded=0;strokeWidth=3;" parent="1" edge="1">
                    <mxGeometry width="50" height="50" relative="1" as="geometry">
                        <mxPoint x="1485" y="559" as="sourcePoint"/>
                        <mxPoint x="1535" y="559" as="targetPoint"/>
                    </mxGeometry>
                </mxCell>
                <mxCell id="5XVwS2wBV6jyzfLc82zG-97" value="" style="endArrow=classic;html=1;rounded=0;strokeWidth=3;" parent="1" edge="1">
                    <mxGeometry width="50" height="50" relative="1" as="geometry">
                        <mxPoint x="1535" y="584.6107407407409" as="sourcePoint"/>
                        <mxPoint x="1485" y="584.6107407407409" as="targetPoint"/>
                    </mxGeometry>
                </mxCell>
                <mxCell id="5XVwS2wBV6jyzfLc82zG-98" value="&lt;font style=&quot;font-size: 30px;&quot;&gt;&lt;b&gt;REST APIs&lt;/b&gt;&lt;/font&gt;" style="text;html=1;align=center;verticalAlign=middle;whiteSpace=wrap;rounded=0;" parent="1" vertex="1">
                    <mxGeometry x="1178.75" y="360" width="171.25" height="80" as="geometry"/>
                </mxCell>
                <mxCell id="5XVwS2wBV6jyzfLc82zG-100" value="&lt;font style=&quot;font-size: 16px;&quot;&gt;&lt;b&gt;Client&lt;/b&gt;&lt;/font&gt;" style="text;html=1;align=center;verticalAlign=middle;whiteSpace=wrap;rounded=0;" parent="1" vertex="1">
                    <mxGeometry x="881" y="608" width="60" height="30" as="geometry"/>
                </mxCell>
                <mxCell id="5XVwS2wBV6jyzfLc82zG-101" value="&lt;span style=&quot;font-weight: 700;&quot;&gt;&lt;font style=&quot;color: rgb(39, 39, 39); font-size: 16px;&quot;&gt;(Flutter APP)&lt;/font&gt;&lt;/span&gt;" style="text;html=1;align=center;verticalAlign=middle;whiteSpace=wrap;rounded=0;" parent="1" vertex="1">
                    <mxGeometry x="861" y="628" width="100" height="30" as="geometry"/>
                </mxCell>
                <mxCell id="5XVwS2wBV6jyzfLc82zG-102" value="&lt;font style=&quot;font-size: 16px;&quot;&gt;&lt;b&gt;Internet&lt;/b&gt;&lt;/font&gt;" style="text;html=1;align=center;verticalAlign=middle;whiteSpace=wrap;rounded=0;" parent="1" vertex="1">
                    <mxGeometry x="1096.3700000000001" y="650" width="60" height="30" as="geometry"/>
                </mxCell>
                <mxCell id="5XVwS2wBV6jyzfLc82zG-103" value="&lt;font style=&quot;font-size: 16px;&quot;&gt;&lt;b&gt;APIs&lt;/b&gt;&lt;/font&gt;" style="text;html=1;align=center;verticalAlign=middle;whiteSpace=wrap;rounded=0;" parent="1" vertex="1">
                    <mxGeometry x="1290" y="653" width="60" height="24" as="geometry"/>
                </mxCell>
                <mxCell id="5XVwS2wBV6jyzfLc82zG-104" value="&lt;font style=&quot;font-size: 16px;&quot;&gt;&lt;b&gt;Odoo Server&lt;/b&gt;&lt;/font&gt;" style="text;html=1;align=center;verticalAlign=middle;whiteSpace=wrap;rounded=0;" parent="1" vertex="1">
                    <mxGeometry x="1384.63" y="653" width="110.25" height="24" as="geometry"/>
                </mxCell>
                <mxCell id="5XVwS2wBV6jyzfLc82zG-105" value="&lt;font style=&quot;font-size: 16px;&quot;&gt;&lt;b&gt;Database&lt;/b&gt;&lt;/font&gt;" style="text;html=1;align=center;verticalAlign=middle;whiteSpace=wrap;rounded=0;" parent="1" vertex="1">
                    <mxGeometry x="1534.5900000000001" y="653" width="110.25" height="24" as="geometry"/>
                </mxCell>
            </root>
        </mxGraphModel>
    </diagram>
</mxfile>